<svg width="132" height="34" viewBox="0 0 132 34" fill="none" xmlns="http://www.w3.org/2000/svg">
<path d="M13.7134 7.86842L0.00985268 0.122041C0.00985268 0.122041 -0.015684 15.3276 0.0154667 15.3587L5.81728 18.6359V9.08565L13.7134 13.4237L21.6092 9.08565V18.6359L27.4112 15.3587C27.4424 15.3276 27.4148 0.120409 27.4148 0.120409L13.7134 7.86842Z" fill="#DEE7EC"/>
<path d="M0.0154667 26.3291L13.7134 33.9442L27.4112 26.3291C27.4424 26.2978 27.4158 19.5517 27.4158 19.5517L13.7134 27.2966L0.00985268 19.5461C0.00985268 19.5461 -0.015684 26.2978 0.0154667 26.3291Z" fill="#DEE7EC"/>
<path d="M34.0583 0.230454H35.5954L40.4953 7.57042L45.395 0.230454H46.9321V13.6807H45.4142V2.78608L40.5143 9.99148H40.4375L35.5378 2.80527V13.6807H34.0583V0.230454Z" fill="#DEE7EC"/>
<path d="M50.738 0.23021H60.4607V1.6137H52.2559V6.20607H59.5959V7.58938H52.2559V12.2969H60.5567V13.6804H50.738V0.23021Z" fill="#DEE7EC"/>
<path d="M67.1663 1.63302H62.6509V0.230331H73.2189V1.63302H68.7035V13.6805H67.1663V1.63302Z" fill="#DEE7EC"/>
<path d="M81.7116 7.08988C83.7292 7.08988 85.1703 6.05231 85.1703 4.3229V4.28451C85.1703 2.63207 83.9021 1.6329 81.7307 1.6329H77.5804V7.08988H81.7116ZM76.0625 0.23021H81.846C83.4985 0.23021 84.8244 0.729708 85.6698 1.5753C86.3232 2.22856 86.7073 3.16996 86.7073 4.22691V4.26531C86.7073 6.49421 85.1703 7.80073 83.0567 8.18504L87.1876 13.6804H85.3239L81.4233 8.45417H77.5804V13.6804H76.0625V0.23021Z" fill="#DEE7EC"/>
<path d="M101.502 6.99411V6.95572C101.502 3.9006 99.2733 1.40257 96.1991 1.40257C93.1246 1.40257 90.9341 3.8622 90.9341 6.91733V6.95572C90.9341 10.0108 93.163 12.5087 96.2375 12.5087C99.3116 12.5087 101.502 10.0492 101.502 6.99411ZM89.3586 6.99411V6.95572C89.3586 3.24734 92.1446 6.31359e-05 96.2375 6.31359e-05C100.33 6.31359e-05 103.078 3.20895 103.078 6.91733V6.95572C103.078 10.6641 100.292 13.9114 96.1991 13.9114C92.1062 13.9114 89.3586 10.7027 89.3586 6.99411Z" fill="#DEE7EC"/>
<path d="M33.9485 16.8017H36.8373V19.2477H33.9485V16.8017ZM33.9099 20.307H36.8757V33.7882H33.9099V20.307Z" fill="#DEE7EC"/>
<path d="M39.3201 31.8235L41.0727 29.7242C42.2859 30.7256 43.5571 31.3613 45.0978 31.3613C46.311 31.3613 47.0429 30.8799 47.0429 30.0903V30.0517C47.0429 29.3004 46.5807 28.9154 44.3274 28.3377C41.6118 27.6444 39.8594 26.8931 39.8594 24.2162V24.1778C39.8594 21.7317 41.8237 20.1142 44.5777 20.1142C46.5421 20.1142 48.2176 20.7304 49.5851 21.8283L48.0442 24.0622C46.8504 23.234 45.6755 22.7334 44.5393 22.7334C43.403 22.7334 42.806 23.2534 42.806 23.9081V23.9467C42.806 24.8325 43.3836 25.1214 45.7139 25.7185C48.4487 26.4311 49.9895 27.4131 49.9895 29.7628V29.8014C49.9895 32.4782 47.9481 33.9805 45.04 33.9805C42.9986 33.9805 40.9379 33.268 39.3201 31.8235Z" fill="#DEE7EC"/>
<path d="M55.4219 23.0418H51.3198V20.307H62.4899V23.0418H58.3878V33.7882H55.4219V23.0418Z" fill="#DEE7EC"/>
<path d="M70.7713 28.1453L68.9801 23.7735L67.1891 28.1453H70.7713ZM67.6513 20.2106H70.3861L76.1636 33.7881H73.063L71.8306 30.7645H66.1298L64.8972 33.7881H61.8738L67.6513 20.2106Z" fill="#DEE7EC"/>
<path d="M78.2419 20.3069H80.9767L87.2936 28.6073V20.3069H90.221V33.7881H87.698L81.1692 25.2178V33.7881H78.2419V20.3069Z" fill="#DEE7EC"/>
<path d="M99.8711 31.1882C101.181 31.1882 101.97 30.7258 101.97 29.7244V29.6859C101.97 28.7807 101.296 28.2223 99.7749 28.2223H96.3467V31.1882H99.8711ZM99.0816 25.7572C100.391 25.7572 101.219 25.3335 101.219 24.3321V24.2935C101.219 23.4075 100.526 22.9068 99.2741 22.9068H96.3467V25.7572H99.0816ZM93.458 20.307H99.7169C101.258 20.307 102.471 20.7306 103.241 21.501C103.858 22.1171 104.166 22.8684 104.166 23.7928V23.8313C104.166 25.3527 103.357 26.2001 102.394 26.7394C103.954 27.3363 104.917 28.2415 104.917 30.0519V30.0903C104.917 32.5555 102.914 33.788 99.8711 33.788H93.458V20.307Z" fill="#DEE7EC"/>
<path d="M107.152 28.0106V20.3071H110.118V27.9334C110.118 30.129 111.216 31.2653 113.026 31.2653C114.836 31.2653 115.934 30.1676 115.934 28.0298V20.3071H118.9V27.9142C118.9 31.9971 116.608 34 112.988 34C109.367 34 107.152 31.9777 107.152 28.0106Z" fill="#DEE7EC"/>
<path d="M121.922 20.307H124.888V31.0919H131.609V33.7882H121.922V20.307Z" fill="#DEE7EC"/>
</svg>
