<svg width="68" height="55" viewBox="0 0 68 55" fill="none" xmlns="http://www.w3.org/2000/svg">
<path fill-rule="evenodd" clip-rule="evenodd" d="M9.36651 3.243e-05H27.5499L31.1373 5.31641L34.7769 3.243e-05H58.1989C63.3719 3.243e-05 67.5654 4.19334 67.5654 9.36616V22.7189C67.5654 27.8918 63.3719 32.0851 58.1989 32.0851H9.36651C4.19348 32.0851 0 27.8918 0 22.7189V9.36616C0 4.19334 4.19348 3.243e-05 9.36651 3.243e-05Z" fill="#DEE7EC"/>
<path d="M28.0159 6.5432H33.898V25.8754H28.0159V6.5432Z" fill="white"/>
<path fill-rule="evenodd" clip-rule="evenodd" d="M38.5146 25.8055H44.1867L45.1521 14.8315L49.7888 25.7705L54.7757 14.7965L55.1808 25.8055H60.7278L59.1823 6.47338H53.4052L49.8238 15.5517L46.2075 6.47338H40.6054L38.5146 25.8055Z" fill="white"/>
<path fill-rule="evenodd" clip-rule="evenodd" d="M13.2788 18.4128H15.5547C16.7065 18.3428 18.112 18.7479 18.182 20.1334C18.1694 21.3623 16.6292 21.8481 15.4726 21.784H13.2788V18.4128ZM13.2788 10.5649H15.5547C16.7648 10.5649 17.6017 11.4808 17.6017 12.6107C17.6017 13.7405 16.6853 14.6564 15.5547 14.6564H13.2788V10.5649ZM20.868 16.377C22.4486 17.3074 23.6286 18.7069 23.589 20.7136C23.519 24.2599 20.1901 26.4543 14.1956 26.3157C10.9648 26.241 9.39424 26.2366 7.52307 25.8272V6.5784C10.7893 6.13823 11.1476 6.18516 13.798 6.15844C16.0891 6.13534 18.2185 6.36 19.4596 6.84515C21.7045 7.69357 22.9861 9.54786 23.0989 11.9329C23.1802 13.6546 22.261 15.1991 20.868 16.377Z" fill="white"/>
<path d="M0.119995 43.0614C0.119995 42.5113 0.775176 42.0654 1.58343 42.0654H66.0442C66.8524 42.0654 67.5076 42.5113 67.5076 43.0614C67.5076 43.6115 66.8524 44.0574 66.0442 44.0574H1.58343C0.775176 44.0574 0.119995 43.6115 0.119995 43.0614Z" fill="#DEE7EC"/>
<path d="M0.119995 54.0041C0.119995 53.454 0.775176 53.0081 1.58343 53.0081H66.0442C66.8524 53.0081 67.5076 53.454 67.5076 54.0041C67.5076 54.5541 66.8524 55 66.0442 55H1.58343C0.775176 55 0.119995 54.5541 0.119995 54.0041Z" fill="#DEE7EC"/>
<path fill-rule="evenodd" clip-rule="evenodd" d="M4.91974 35.9389H6.00274V35.0269H2.78943V35.9389H3.8724V40.3989H4.91974V35.9389Z" fill="#DEE7EC"/>
<path fill-rule="evenodd" clip-rule="evenodd" d="M9.21114 40.5413C10.7787 40.5413 11.8687 39.2446 11.8687 37.7057C11.8687 36.2023 10.7787 34.8843 9.21114 34.8843C7.6437 34.8843 6.55359 36.2023 6.55359 37.7057C6.55359 39.2446 7.6437 40.5413 9.21114 40.5413ZM9.21114 35.9174C10.1303 35.9174 10.7858 36.7937 10.7858 37.6629C10.7858 38.4751 10.1018 39.5082 9.21114 39.5082C8.32055 39.5082 7.63657 38.4751 7.63657 37.6629C7.63657 36.7937 8.29204 35.9174 9.21114 35.9174Z" fill="#DEE7EC"/>
<path fill-rule="evenodd" clip-rule="evenodd" d="M13.8523 38.3898H14.3724C15.4696 38.3898 16.0895 37.834 16.0895 36.6941C16.0895 35.4758 15.3556 35.0269 14.2299 35.0269H12.8049V40.3989H13.8523V38.3898ZM13.8523 35.8961H14.0375C14.6218 35.8961 15.0208 35.9959 15.0208 36.687C15.0208 37.3852 14.6859 37.5206 14.066 37.5206H13.8523V35.8961Z" fill="#DEE7EC"/>
<path fill-rule="evenodd" clip-rule="evenodd" d="M18.735 35.9389H19.8179V35.0269H16.6046V35.9389H17.6876V40.3989H18.735V35.9389Z" fill="#DEE7EC"/>
<path fill-rule="evenodd" clip-rule="evenodd" d="M23.0192 39.2661L23.4324 40.3989H24.551L22.5133 34.8844H21.701L19.6063 40.3989H20.7107L21.1524 39.2661H23.0192ZM22.727 38.4111H21.4516L22.043 36.459H22.0573L22.7271 38.4111H22.727Z" fill="#DEE7EC"/>
<path fill-rule="evenodd" clip-rule="evenodd" d="M25.2939 40.3989H26.3413V36.7511H26.3555L29.1841 40.5057H29.9393V35.0269H28.8919V38.6391H28.8778L26.0492 34.8844H25.2939V40.3989Z" fill="#DEE7EC"/>
<path fill-rule="evenodd" clip-rule="evenodd" d="M36.2694 35.9389V35.0269H33.6047V40.3989H34.6521V38.0335H36.1697V37.1216H34.6521V35.9389H36.2694Z" fill="#DEE7EC"/>
<path fill-rule="evenodd" clip-rule="evenodd" d="M38.3736 35.0269H37.3263V40.3989H38.3736V35.0269ZM37.8677 33.0819C37.5542 33.0819 37.2977 33.3384 37.2977 33.6519C37.2977 33.9654 37.5542 34.2219 37.8677 34.2219C38.1812 34.2219 38.4377 33.9654 38.4377 33.6519C38.4377 33.3384 38.1812 33.0819 37.8677 33.0819Z" fill="#DEE7EC"/>
<path fill-rule="evenodd" clip-rule="evenodd" d="M40.725 37.9338V40.3989H41.7723V37.9338L43.468 35.0269H42.2426L41.2166 36.8936L40.2761 35.0269H39.0577L40.725 37.9338Z" fill="#DEE7EC"/>
<path fill-rule="evenodd" clip-rule="evenodd" d="M46.4133 39.2661L46.8266 40.3989H47.9452L45.9074 34.8844H45.0952L43.0005 40.3989H44.1048L44.5466 39.2661H46.4133ZM46.1212 38.4111H44.8458L45.4372 36.459H45.4514L46.1211 38.4111H46.1212Z" fill="#DEE7EC"/>
<path fill-rule="evenodd" clip-rule="evenodd" d="M49.8638 35.9389H50.9467V35.0269H47.7334V35.9389H48.8164V40.3989H49.8638V35.9389Z" fill="#DEE7EC"/>
<path fill-rule="evenodd" clip-rule="evenodd" d="M52.8014 35.0269H51.754V40.3989H52.8014V35.0269Z" fill="#DEE7EC"/>
<path fill-rule="evenodd" clip-rule="evenodd" d="M53.9883 40.399H55.0357V36.7512H55.0499L57.8785 40.5059H58.6337V35.027H57.5863V38.6392H57.5722L54.7436 34.8845H53.9883V40.399Z" fill="#DEE7EC"/>
<path fill-rule="evenodd" clip-rule="evenodd" d="M62.7804 39.2661L63.1936 40.3989H64.3122L62.2745 34.8844H61.4623L59.3676 40.3989H60.4719L60.9137 39.2661H62.7804ZM62.4883 38.4111H61.2129L61.8043 36.459H61.8186L62.4883 38.4111H62.4883Z" fill="#DEE7EC"/>
<path fill-rule="evenodd" clip-rule="evenodd" d="M4.22315 49.2008H4.74327C5.84053 49.2008 6.46038 48.6451 6.46038 47.5052C6.46038 46.2868 5.72651 45.838 4.60078 45.838H3.17578V51.21H4.22315V49.2008ZM4.22315 46.7072H4.40842C4.99263 46.7072 5.39162 46.807 5.39162 47.498C5.39162 48.1962 5.05677 48.3316 4.43691 48.3316H4.22315V46.7072Z" fill="#DEE7EC"/>
<path fill-rule="evenodd" clip-rule="evenodd" d="M10.1373 46.7503V45.8383H7.35864V51.2103H10.1373V50.2984H8.40597V48.8449H10.0732V47.933H8.40597V46.7503H10.1373Z" fill="#DEE7EC"/>
<path fill-rule="evenodd" clip-rule="evenodd" d="M13.3738 48.9447C14.0934 48.8236 14.4711 48.1396 14.4711 47.4556C14.4711 46.3086 13.7372 45.8383 12.6756 45.8383H11.2577V51.2103H12.3051V49.0444H12.3193L13.6232 51.2103H14.8914L13.3738 48.9447H13.3738ZM12.3051 46.6933H12.4476C13.0033 46.6933 13.4237 46.8216 13.4237 47.4842C13.4237 48.1396 13.0176 48.3106 12.4404 48.3106H12.3051V46.6933Z" fill="#DEE7EC"/>
<path fill-rule="evenodd" clip-rule="evenodd" d="M18.6196 50.0775L19.0329 51.2103H20.1515L18.1138 45.6958H17.3015L15.2068 51.2103H16.3112L16.7529 50.0775H18.6196ZM18.3275 49.2226H17.0521L17.6435 47.2704H17.6578L18.3276 49.2226H18.3275Z" fill="#DEE7EC"/>
<path fill-rule="evenodd" clip-rule="evenodd" d="M21.9557 48.104H21.9414V45.8383H20.894V51.2103H21.9414V48.7951H21.9557L23.6728 51.2103H25.0194L22.8677 48.3177L24.9054 45.8383H23.6158L21.9557 48.104Z" fill="#DEE7EC"/>
<path fill-rule="evenodd" clip-rule="evenodd" d="M28.5125 46.7503V45.8383H25.7338V51.2103H28.5125V50.2984H26.7811V48.8449H28.4484V47.933H26.7811V46.7503H28.5125Z" fill="#DEE7EC"/>
<path fill-rule="evenodd" clip-rule="evenodd" d="M29.6328 51.2103H30.6802V47.5625H30.6945L33.5231 51.3171H34.2783V45.8383H33.2309V49.4505H33.2166L30.3881 45.6958H29.6328V51.2103Z" fill="#DEE7EC"/>
<path fill-rule="evenodd" clip-rule="evenodd" d="M35.4648 51.21H36.954C38.4859 51.21 39.5546 50.0415 39.5546 48.5311C39.5546 46.9993 38.5143 45.838 36.9611 45.838H35.4648V51.21ZM36.5122 46.7499H36.6832C37.8731 46.7499 38.4716 47.3555 38.4716 48.524C38.4716 49.5856 37.9728 50.298 36.6832 50.298H36.5122V46.7499Z" fill="#DEE7EC"/>
<path fill-rule="evenodd" clip-rule="evenodd" d="M43.2682 46.7503V45.8383H40.4895V51.2103H43.2682V50.2984H41.5368V48.8449H43.2041V47.933H41.5368V46.7503H43.2682Z" fill="#DEE7EC"/>
<path fill-rule="evenodd" clip-rule="evenodd" d="M49.8901 46.2941C49.5623 45.9308 48.8997 45.6957 48.4223 45.6957C47.5175 45.6957 46.8548 46.4153 46.8548 47.3058C46.8548 48.1394 47.3607 48.4885 48.0518 48.7735C48.4722 48.9374 48.9852 49.0941 48.9852 49.6498C48.9852 50.0631 48.7216 50.4265 48.2941 50.4265C47.8452 50.4265 47.4676 50.056 47.3251 49.6427L46.6482 50.3053C47.0187 50.9252 47.5602 51.3527 48.3012 51.3527C49.3984 51.3527 50.0682 50.5903 50.0682 49.5145C50.0682 47.7119 47.9378 48.0895 47.9378 47.1847C47.9378 46.8356 48.2585 46.5791 48.5933 46.5791C48.9424 46.5791 49.1989 46.7501 49.3984 47.0209L49.8901 46.2941Z" fill="#DEE7EC"/>
<path fill-rule="evenodd" clip-rule="evenodd" d="M54.0036 50.0775L54.4169 51.2103H55.5355L53.4978 45.6958H52.6855L50.5908 51.2103H51.6952L52.1369 50.0775H54.0036ZM53.7115 49.2226H52.4362L53.0275 47.2704H53.0417L53.7114 49.2226H53.7115Z" fill="#DEE7EC"/>
<path fill-rule="evenodd" clip-rule="evenodd" d="M57.4541 46.7503H58.5371V45.8383H55.3237V46.7503H56.4067V51.2103H57.4541V46.7503Z" fill="#DEE7EC"/>
<path fill-rule="evenodd" clip-rule="evenodd" d="M60.3915 45.8383H59.3441V51.2103H60.3915V45.8383Z" fill="#DEE7EC"/>
<path fill-rule="evenodd" clip-rule="evenodd" d="M64.5977 46.2944C64.27 45.931 63.6073 45.6959 63.13 45.6959C62.2251 45.6959 61.5625 46.4155 61.5625 47.3061C61.5625 48.1397 62.0683 48.4888 62.7595 48.7738C63.1798 48.9376 63.6928 49.0944 63.6928 49.6501C63.6928 50.0633 63.4292 50.4267 63.0017 50.4267C62.5528 50.4267 62.1752 50.0562 62.0327 49.643L61.3558 50.3056C61.7263 50.9254 62.2678 51.3529 63.0088 51.3529C64.1061 51.3529 64.7758 50.5906 64.7758 49.5148C64.7758 47.7122 62.6454 48.0898 62.6454 47.185C62.6454 46.8359 62.9661 46.5794 63.3009 46.5794C63.6501 46.5794 63.9066 46.7504 64.1061 47.0211L64.5977 46.2944ZM62.7951 51.3529L62.0968 52.4074L62.6241 52.6781L63.4506 51.6878L62.7951 51.3529Z" fill="#DEE7EC"/>
</svg>
