<svg width="201" height="21" viewBox="0 0 201 21" fill="none" xmlns="http://www.w3.org/2000/svg">
<path d="M126.637 11.0396C126.622 17.0788 123.397 20.3086 117.375 20.3086C111.462 20.3086 108.143 16.9803 108.156 11.1005L108.191 0.401875L114.827 0.401876L114.811 10.7586C114.799 13.6302 115.543 14.8985 117.335 14.893C119.121 14.8985 119.986 13.7519 119.995 10.4646L120.023 0.400391L126.669 0.401876L126.637 11.0396Z" fill="#DEE7EC"/>
<path d="M31.4091 5.34006L31.3685 19.9029L24.649 19.9029L24.695 5.34006L19.078 5.34204L19.0943 0.393555L37.0355 0.399494L37.0227 5.3455L31.4091 5.34006Z" fill="#DEE7EC"/>
<path d="M52.6053 19.9029L51.4884 16.3267L45.185 16.3267L43.9905 19.9029L37.3046 19.9084L44.1458 0.395533L52.633 0.393555L59.2932 19.9029L52.6053 19.9029ZM48.3263 4.84422L46.6567 11.5267L49.9979 11.5306L48.3263 4.84422Z" fill="#DEE7EC"/>
<path d="M148.141 18.3978L146.14 13.335C144.955 14.2653 143.757 15.108 141.804 15.1026C139.171 15.1026 137.418 12.8396 137.429 10.0789C137.433 7.27753 138.984 4.93838 141.728 4.93294C143.455 4.92551 144.962 5.83158 146.164 6.83563L148.156 1.88764C145.94 0.720789 143.727 0.0166185 140.68 0.0166184C135.031 0.00721599 130.745 4.0526 130.727 10.0215C130.706 16.3214 134.857 20.3079 140.808 20.3079C144.084 20.3079 146.386 19.5181 148.141 18.3978Z" fill="#DEE7EC"/>
<path d="M163.225 19.9068L159.048 12.8028L159.023 19.9177L152.504 19.9068L152.563 0.399414L159.081 0.401395L159.059 7.54799L163.014 0.406839L170.29 0.406839L164.146 10.0198L171.026 19.9123L163.225 19.9068Z" fill="#DEE7EC"/>
<path d="M7.83431 20.3026C12.0633 20.2972 16.4452 18.7236 16.4566 13.7385C16.4768 9.23585 12.8155 8.00813 9.97008 7.3574C7.82343 6.88235 6.78425 6.64532 6.79315 5.74321C6.79315 4.55607 8.2485 4.45809 9.0175 4.45809C10.9519 4.46551 12.7526 5.29042 14.304 6.2722L16.0532 1.82698C13.7789 0.806109 11.0296 4.82122e-07 8.44991 3.69362e-07C4.06209 1.77565e-07 0.624871 2.21544 0.619428 6.67352C0.602603 10.329 3.24658 11.7378 6.17756 12.4959C8.19506 13.0175 9.49107 13.1818 9.48711 14.2229C9.48166 15.2715 8.49444 15.5838 7.52751 15.5803C5.38976 15.5838 3.36682 14.6168 2.11684 13.4816L-0.000122848 17.7918C2.26678 19.3357 5.03694 20.3026 7.83431 20.3026Z" fill="#DEE7EC"/>
<path d="M180.893 20.3085C185.122 20.3085 189.508 18.7383 189.523 13.7478C189.532 9.24369 185.88 8.01251 183.031 7.37415C180.878 6.89167 179.85 6.66058 179.856 5.75996C179.864 4.56391 181.304 4.47335 182.08 4.46791C184.013 4.47335 185.816 5.29975 187.361 6.29439L189.124 1.84769C186.843 0.824834 184.085 0.015262 181.518 0.00585974C177.127 0.0152617 173.689 2.21932 173.68 6.68087C173.667 10.3423 176.317 11.7565 179.235 12.5132C181.254 13.0342 182.554 13.1856 182.546 14.2417C182.546 15.2863 181.555 15.5951 180.594 15.5951C178.462 15.5951 176.437 14.6262 175.176 13.493L173.066 17.8051C175.328 19.3396 178.109 20.3085 180.893 20.3085Z" fill="#DEE7EC"/>
<path d="M73.9933 7.11852C73.9859 8.3982 73.2149 9.14146 71.9427 9.14146L69.6461 9.13552L69.6589 5.06242L71.9798 5.06242C73.2055 5.06589 73.9987 5.72057 73.9933 7.05765L73.9933 7.11852ZM77.0015 12.6178C79.2832 11.7483 80.5298 9.33346 80.5312 7.09081C80.55 2.4902 77.5453 0.398973 73.2738 0.402931L63.2061 0.395508L63.1561 19.9029L69.6149 19.9029L69.6312 14.1191L71.2642 14.1191L74.5995 19.9029L81.5798 19.9029L77.0015 12.6178Z" fill="#DEE7EC"/>
<path d="M96.9343 13.8706C96.9378 15.0098 96.1336 15.6828 94.8188 15.6773L92.4539 15.6828L92.4653 12.0253L94.8559 12.0253C96.1188 12.0253 96.9378 12.6132 96.9437 13.8167L96.9343 13.8706ZM92.4856 4.63478L94.8243 4.63626C96.0559 4.62538 96.864 5.18752 96.864 6.33013L96.8586 6.38209C96.8586 7.46729 96.0782 8.09971 94.7876 8.10169L92.4742 8.10713L92.4856 4.63478ZM99.654 9.94895C102.078 9.40314 103.275 7.97401 103.282 5.59775C103.299 2.27336 100.921 0.402344 96.7289 0.402344L86.1006 0.405808L86.0546 19.9187L96.2593 19.9187C101.187 19.9038 103.648 18.0902 103.654 14.4085C103.657 11.866 102.126 10.1538 99.654 9.94895Z" fill="#DEE7EC"/>
<path d="M195.786 5.98646L195.043 5.98646L195.043 0.677735L196.191 0.677735L197.546 4.69936L198.859 0.677735L200.001 0.677735L200.001 5.98646L199.258 5.98646L199.258 1.55609L199.238 1.55609L197.762 5.98646L197.284 5.98646L195.808 1.55609L195.786 1.55609L195.786 5.98646ZM194.388 1.373L192.992 1.373L192.992 5.98646L192.249 5.98646L192.249 1.373L190.871 1.373L190.871 0.677734L194.388 0.677735L194.388 1.373Z" fill="#DEE7EC"/>
</svg>
