<svg width="99" height="29" viewBox="0 0 99 29" fill="none" xmlns="http://www.w3.org/2000/svg">
<g clip-path="url(#clip0)">
<path d="M53.0977 14.5C53.0977 6.49159 59.6368 0.000398457 67.7045 0.000398457C75.772 0.000398457 82.3125 6.49159 82.3125 14.5C82.3125 22.5074 75.772 29 67.7045 29C59.6368 29 53.0977 22.5074 53.0977 14.5ZM62.6268 14.5C62.6268 17.2845 64.8997 19.5417 67.7045 19.5417C70.5091 19.5417 72.7836 17.2845 72.7836 14.5C72.7836 11.7158 70.5091 9.45835 67.7045 9.45835C64.8997 9.45835 62.6268 11.7158 62.6268 14.5Z" fill="#DEE7EC"/>
<path d="M98.0874 28.3721H88.9154V10.2613H83.4922V4.10166C86.7852 3.94217 89.3029 2.73345 89.8376 0.475236H98.0874V28.3721Z" fill="#DEE7EC"/>
<path d="M49.4228 28.3721H40.2502V10.2613H34.8281V4.10166C38.1206 3.94217 40.6377 2.73345 41.1732 0.475236H49.4228V28.3721Z" fill="#DEE7EC"/>
<path fill-rule="evenodd" clip-rule="evenodd" d="M14.2632 12.3149L13.8083 11.0362L13.3525 12.3149L11.8588 16.657H15.8572L14.2632 12.3149ZM20.0253 28.3954L17.9628 22.59H9.65318L7.59075 28.3954H0L10.7456 0.536161H17.0974L27.7618 28.3954H20.0253Z" fill="#DEE7EC"/>
<path d="M26.918 17.5418C26.918 20.3259 29.1917 22.583 31.9969 22.583C34.8013 22.583 37.0753 20.3259 37.0753 17.5418C37.0753 14.7575 34.8013 12.5005 31.9969 12.5005C29.1917 12.5005 26.918 14.7575 26.918 17.5418Z" fill="#DEE7EC"/>
</g>
<defs>
<clipPath id="clip0">
<rect width="98.0882" height="29" fill="white"/>
</clipPath>
</defs>
</svg>
