<svg width="149" height="45" viewBox="0 0 149 45" fill="none" xmlns="http://www.w3.org/2000/svg">
<path fill-rule="evenodd" clip-rule="evenodd" d="M1.13134 19.5867H1.13148C1.75372 19.5867 2.26282 20.0958 2.26282 20.7181V22.9881H2.56868L5.50178 20.055C5.91454 19.6423 6.58988 19.6423 7.00271 20.055L7.00278 20.0552C7.41554 20.4679 7.41554 21.1433 7.00278 21.5561L4.57416 23.9847L7.00278 26.4133C7.41554 26.8261 7.41554 27.5015 7.00278 27.9143L7.00271 27.9144C6.58988 28.3272 5.91454 28.3272 5.50178 27.9144L2.63351 25.0461H2.26282V27.3162C2.26282 27.9384 1.75372 28.4475 1.13148 28.4475H1.13134C0.509076 28.4475 0 27.9384 0 27.3162V20.7181C0 20.0958 0.509076 19.5867 1.13134 19.5867ZM45.7157 19.9389C46.2517 20.2595 46.4262 20.9539 46.1057 21.4898C45.7852 22.0257 45.0908 22.2003 44.5549 21.8797C43.9983 21.5479 43.3501 21.4335 42.7306 21.5201C42.1169 21.6059 41.5391 21.888 41.1163 22.3497C40.7095 22.7941 40.506 23.3459 40.506 23.8979C40.506 24.45 40.7095 25.0018 41.1163 25.4462C41.5391 25.9079 42.1169 26.19 42.7306 26.2758C43.3501 26.3624 43.9983 26.248 44.5549 25.9162C45.0908 25.5956 45.7852 25.7702 46.1057 26.3061C46.4262 26.842 46.2517 27.5364 45.7157 27.857C44.7 28.4626 43.5298 28.6729 42.4203 28.5178C41.3051 28.362 40.2428 27.836 39.4502 26.9704C38.6417 26.0874 38.2373 24.9924 38.2373 23.8979C38.2373 22.8035 38.6417 21.7085 39.4502 20.8255C40.2428 19.96 41.3051 19.4339 42.4203 19.2781C43.5298 19.123 44.7 19.3333 45.7157 19.9389ZM48.2857 16.4233C48.9999 16.4233 49.5788 17.0022 49.5788 17.7165C49.5788 18.4307 48.9999 19.0096 48.2857 19.0096C47.5714 19.0096 46.9925 18.4307 46.9925 17.7165C46.9925 17.0022 47.5714 16.4233 48.2857 16.4233ZM14.3723 16.4233C15.0865 16.4233 15.6654 17.0022 15.6654 17.7165C15.6654 18.4307 15.0865 19.0096 14.3723 19.0096C13.6581 19.0096 13.0792 18.4307 13.0792 17.7165C13.0792 17.0022 13.6581 16.4233 14.3723 16.4233ZM11.085 16.4233C11.7993 16.4233 12.3782 17.0022 12.3782 17.7165C12.3782 18.4307 11.7993 19.0096 11.085 19.0096C10.3708 19.0096 9.79192 18.4307 9.79192 17.7165C9.79192 17.0022 10.3708 16.4233 11.085 16.4233ZM48.2856 19.5867H48.2857C48.957 19.5867 49.5063 20.0958 49.5063 20.7181V22.9881V25.0461V27.3162C49.5063 27.9384 48.957 28.4475 48.2857 28.4475H48.2856C47.6143 28.4475 47.065 27.9384 47.065 27.3162V20.7181C47.065 20.0958 47.6143 19.5867 48.2856 19.5867ZM37.4376 27.3883V27.3884C37.4376 27.971 36.9611 28.4475 36.3786 28.4475H34.2535H35.4153H33.1732H33.173H33.1052C32.5335 28.4475 32.0638 27.9885 32.0466 27.4207C32.0434 27.3863 32.0417 27.3514 32.0417 27.3162V20.7181C32.0417 20.6843 32.0432 20.6508 32.0462 20.6177C32.0522 20.0403 32.5264 19.5699 33.1052 19.5699H36.3786C36.9611 19.5699 37.4376 20.0464 37.4376 20.6289V20.6291C37.4376 21.2116 36.9611 21.6881 36.3786 21.6881H34.3045V22.8713H36.3786C36.9611 22.8713 37.4376 23.3478 37.4376 23.9303V23.9305C37.4376 24.513 36.9611 24.9895 36.3786 24.9895H34.3045V25.0461V26.3292H36.3786C36.9611 26.3292 37.4376 26.8058 37.4376 27.3883ZM34.3045 24.9895H35.4153H34.3045ZM34.3045 21.6881H35.4153H34.3045ZM29.0026 21.6881V22.9881V25.0461V27.3162C29.0026 27.9384 28.4533 28.4475 27.782 28.4475H27.7819C27.1106 28.4475 26.5613 27.9384 26.5613 27.3162V21.6881H25.1877C24.6054 21.6881 24.1287 21.2116 24.1287 20.6291V20.6289C24.1287 20.0464 24.6052 19.5699 25.1877 19.5699H30.3762C30.9587 19.5699 31.4352 20.0464 31.4352 20.6289V20.6291C31.4352 21.2116 30.9587 21.6881 30.3762 21.6881H29.0026ZM29.0026 21.6881H29.413H29.0026ZM23.4604 23.9303V23.9305C23.4604 24.513 22.9839 24.9895 22.4014 24.9895H20.3273V25.0461V27.3162C20.3273 27.9384 19.8183 28.4475 19.196 28.4475H19.1959C18.5736 28.4475 18.0645 27.9384 18.0645 27.3162V20.7181C18.0645 20.6843 18.0661 20.6508 18.0691 20.6177C18.0751 20.0403 18.5492 19.5699 19.128 19.5699H22.4014C22.9839 19.5699 23.4604 20.0464 23.4604 20.6289V20.6291C23.4604 21.2116 22.9839 21.6881 22.4014 21.6881H20.3273V22.8713H22.4014C22.9839 22.8713 23.4604 23.3478 23.4604 23.9303ZM20.3273 24.9895H21.4382H20.3273ZM20.3273 21.6881H21.4382H20.3273ZM12.6625 19.3617C15.2119 19.3617 17.2787 21.4285 17.2787 23.9779C17.2787 26.5274 15.2119 28.5941 12.6625 28.5941C10.113 28.5941 8.04629 26.5274 8.04629 23.9779C8.04629 21.4285 10.113 19.3617 12.6625 19.3617ZM12.6625 21.5425C14.0076 21.5425 15.0979 22.6329 15.0979 23.9779C15.0979 25.323 14.0076 26.4134 12.6625 26.4134C11.3174 26.4134 10.227 25.323 10.227 23.9779C10.227 22.6329 11.3174 21.5425 12.6625 21.5425Z" fill="#DEE7EC"/>
<path fill-rule="evenodd" clip-rule="evenodd" d="M92.6694 13.9726H94.0415C95.0791 13.9726 95.928 14.8215 95.928 15.859V26.4634C95.928 27.6596 99.4723 27.6597 99.4723 26.4634V15.859C99.4723 14.8214 100.321 13.9726 101.359 13.9726H102.731C103.768 13.9726 104.617 14.8214 104.617 15.859V26.4634C104.318 29.5294 102.012 31.1301 97.7001 31.2654C93.3884 31.1301 91.0827 29.5294 90.783 26.4634V15.859C90.783 14.8214 91.6318 13.9726 92.6694 13.9726ZM147.093 13.4606H147.008V13.8814H147.126C147.211 13.8814 147.275 13.8635 147.319 13.827C147.363 13.7904 147.384 13.7374 147.384 13.6681C147.384 13.5964 147.361 13.5442 147.314 13.5106C147.268 13.477 147.194 13.4606 147.093 13.4606ZM147.179 13.1115C147.432 13.1115 147.625 13.1562 147.758 13.245C147.891 13.3338 147.957 13.4636 147.957 13.6345C147.957 13.7486 147.926 13.8471 147.863 13.9299C147.801 14.0135 147.713 14.0746 147.6 14.1142L147.988 14.8886H147.38L147.063 14.2083H147.008V14.8886H146.449V13.1115H147.179ZM148.468 14.0381C148.468 13.8635 148.435 13.6964 148.369 13.5375C148.303 13.3786 148.21 13.2383 148.087 13.1159C147.96 12.9891 147.819 12.8929 147.662 12.8279C147.505 12.763 147.338 12.731 147.16 12.731C146.981 12.731 146.814 12.7623 146.658 12.8257C146.502 12.8891 146.364 12.9831 146.243 13.107C146.118 13.2338 146.021 13.3771 145.954 13.5375C145.887 13.6979 145.853 13.865 145.853 14.0381C145.853 14.2112 145.886 14.3776 145.953 14.5358C146.019 14.6932 146.115 14.8342 146.238 14.9581C146.364 15.0834 146.505 15.1796 146.662 15.246C146.82 15.3124 146.986 15.3453 147.16 15.3453C147.334 15.3453 147.501 15.3117 147.66 15.2446C147.819 15.1774 147.963 15.0804 148.092 14.9543C148.215 14.8327 148.309 14.6946 148.373 14.5395C148.436 14.3843 148.468 14.2172 148.468 14.0381ZM147.156 12.3952C147.382 12.3952 147.595 12.4362 147.795 12.5176C147.995 12.5996 148.174 12.7183 148.33 12.8742C148.481 13.0271 148.597 13.204 148.68 13.4054C148.762 13.6062 148.803 13.818 148.803 14.0389C148.803 14.2634 148.763 14.4738 148.682 14.6701C148.601 14.8663 148.484 15.0386 148.33 15.1893C148.168 15.3468 147.986 15.4676 147.784 15.5534C147.581 15.6385 147.372 15.681 147.156 15.681C146.939 15.681 146.732 15.6392 146.536 15.5564C146.339 15.4736 146.162 15.352 146.003 15.1938C145.845 15.0378 145.725 14.8603 145.642 14.6626C145.559 14.4642 145.518 14.2567 145.518 14.0389C145.518 13.8187 145.559 13.6084 145.643 13.4077C145.727 13.2062 145.848 13.0256 146.007 12.8653C146.157 12.7123 146.33 12.5959 146.527 12.5153C146.723 12.4355 146.934 12.3952 147.156 12.3952ZM117.591 17.9967C118.73 16.0924 118.425 14.9967 116.505 14.3094C111.718 12.9855 108.498 13.6429 107.015 16.6818C106.05 19.5375 106.793 21.6621 109.245 23.0558C111.474 23.8562 112.589 24.2564 112.589 24.2564C113.697 24.5469 114.26 25.1948 114.275 26.2001C114.132 27.5514 112.207 27.5038 108.501 26.0572C106.824 25.5243 105.871 25.9435 105.643 27.3148C105.444 28.9324 106.473 30.0567 108.73 30.6876C112.605 31.7201 115.502 31.2627 117.419 29.3156C118.39 27.9158 118.75 26.2069 118.462 24.5989C117.808 20.945 115.148 20.9848 112.103 19.8832C111.139 19.3484 110.767 18.7863 110.988 18.1968C111.92 15.3822 116.647 19.2027 117.591 17.9967ZM137.8 14.0302H136.485C135.495 14.0302 134.685 14.8405 134.685 15.831V29.3221C134.685 30.3126 135.495 31.1229 136.485 31.1229H137.8C138.791 31.1229 139.601 30.3126 139.601 29.3221V24.5396H143.22C144.044 24.5396 144.717 23.8659 144.717 23.0425V21.9493C144.717 21.1259 144.043 20.4522 143.22 20.4522H139.601V18.1176H143.679C144.502 18.1176 145.176 17.4439 145.176 16.6205V15.5273C145.176 14.7038 144.502 14.0302 143.679 14.0302H137.827L137.814 14.0304L137.8 14.0302ZM73.3933 2.34832C78.9434 2.34832 83.9682 4.59803 87.6055 8.23531C89.0948 9.72464 90.3514 11.4468 91.3163 13.3423C91.0703 13.4752 90.8458 13.6432 90.6497 13.8393C90.2738 14.2152 90.0014 14.6953 89.8804 15.2314C88.9741 13.1636 87.6903 11.2989 86.1161 9.72469C82.8602 6.46873 78.3619 4.45491 73.3933 4.45491C68.4247 4.45491 63.9264 6.4688 60.6706 9.72469C57.4147 12.9805 55.4008 17.4788 55.4008 22.4474C55.4008 27.416 57.4147 31.9143 60.6706 35.1702C63.9264 38.426 68.4247 40.44 73.3933 40.44C78.362 40.44 82.8602 38.4262 86.1161 35.1702C87.9692 33.3171 89.4196 31.0616 90.3257 28.546C90.6657 29.3044 91.1638 29.951 91.8205 30.4858C90.8075 32.8046 89.3698 34.8953 87.6055 36.6596C83.9682 40.2969 78.9435 42.5466 73.3933 42.5466C67.8433 42.5466 62.8184 40.2968 59.1812 36.6596C55.5439 33.0223 53.2942 27.9975 53.2942 22.4474C53.2942 16.8974 55.5439 11.8725 59.1812 8.23531C62.8184 4.59803 67.8433 2.34832 73.3933 2.34832ZM73.3933 0C79.592 0 85.2039 2.51257 89.2661 6.57472C91.1166 8.42528 92.6454 10.5975 93.7617 13.0003H92.6839C91.6356 10.8639 90.2433 8.92685 88.5786 7.26218C84.6924 3.376 79.3235 0.972281 73.3933 0.972281C67.4631 0.972281 62.0942 3.37607 58.2081 7.26218C54.322 11.1483 51.9182 16.5172 51.9182 22.4474C51.9182 28.3777 54.3219 33.7465 58.2081 37.6327C62.0942 41.5188 67.4631 43.9226 73.3933 43.9226C79.3235 43.9226 84.6925 41.5188 88.5786 37.6327C90.4128 35.7986 91.9165 33.6339 92.9934 31.2359C93.2745 31.3756 93.5736 31.5007 93.8908 31.6114C92.7645 34.1268 91.1891 36.3972 89.2661 38.3202C85.2039 42.3823 79.592 44.8949 73.3933 44.8949C67.1947 44.8949 61.5828 42.3823 57.5206 38.3202C53.4585 34.258 50.9459 28.6461 50.9459 22.4474C50.9459 16.2488 53.4585 10.6369 57.5206 6.57472C61.5828 2.51257 67.1947 0 73.3933 0ZM61.2404 16.9781C59.8315 15.133 60.1852 12.4951 62.0304 11.0863C63.8755 9.67745 66.5134 10.0312 67.9222 11.8763L73.4036 19.0172L78.8851 11.8763C80.2939 10.0312 82.9318 9.67745 84.7769 11.0863C86.622 12.4951 86.9757 15.133 85.5669 16.9781L77.6168 27.3351V34.0953C77.6168 36.4221 75.7305 38.3085 73.4036 38.3085C71.0768 38.3085 69.1904 36.4221 69.1904 34.0953V27.3351L61.2404 16.9781ZM121.481 13.9726H122.853C123.891 13.9726 124.74 14.8215 124.74 15.859V26.4634C124.74 27.6596 128.284 27.6597 128.284 26.4634V15.859C128.284 14.8214 129.133 13.9726 130.17 13.9726H131.543C132.58 13.9726 133.429 14.8214 133.429 15.859V26.4634C133.129 29.5294 130.824 31.1301 126.512 31.2654C122.2 31.1301 119.894 29.5294 119.595 26.4634V15.859C119.595 14.8214 120.444 13.9726 121.481 13.9726Z" fill="#DEE7EC"/>
</svg>
